<?xml version="1.0" standalone="no"?>
<!DOCTYPE svg PUBLIC "-//W3C//DTD SVG 20010904//EN"
 "http://www.w3.org/TR/2001/REC-SVG-20010904/DTD/svg10.dtd">
<svg version="1.0" xmlns="http://www.w3.org/2000/svg"
 width="1025.000000pt" height="1025.000000pt" viewBox="0 0 1025.000000 1025.000000"
 preserveAspectRatio="xMidYMid meet">
<metadata>
Created by potrace 1.14, written by Peter Selinger 2001-2017
</metadata>
<g transform="translate(0.000000,1025.000000) scale(0.100000,-0.100000)"
fill="#000000" stroke="none">
<path d="M5220 8104 c-877 -636 -2166 -1572 -2865 -2079 -698 -506 -1514
-1098 -1813 -1314 l-542 -394 0 -1664 c0 -1329 3 -1663 13 -1656 6 4 1036 734
2287 1622 1251 888 2778 1971 3393 2408 614 436 1120 793 1122 793 3 0 5 -708
5 -1574 l0 -1574 93 -45 c50 -25 391 -192 757 -372 687 -338 1049 -516 1445
-710 127 -62 432 -212 679 -334 247 -121 450 -221 452 -221 2 0 4 744 4 1653
l-1 1652 -317 142 c-273 122 -776 348 -2764 1241 l-348 156 -2 1713 -3 1714
-1595 -1157z"/>
</g>
</svg>
