<?xml version="1.0" standalone="no"?>
<!DOCTYPE svg PUBLIC "-//W3C//DTD SVG 20010904//EN"
 "http://www.w3.org/TR/2001/REC-SVG-20010904/DTD/svg10.dtd">
<svg version="1.0" xmlns="http://www.w3.org/2000/svg"
 width="1025.000000pt" height="1025.000000pt" viewBox="0 0 1025.000000 1025.000000"
 preserveAspectRatio="xMidYMid meet">
<metadata>
Created by potrace 1.14, written by Peter Selinger 2001-2017
</metadata>
<g transform="translate(0.000000,1025.000000) scale(0.100000,-0.100000)"
fill="#000000" stroke="none">
<path d="M6685 9164 c-71 -53 -141 -103 -153 -112 -13 -9 -39 -28 -58 -42 -18
-14 -49 -36 -69 -50 -19 -14 -45 -33 -57 -42 -13 -9 -66 -48 -118 -86 -52 -38
-159 -115 -238 -173 -79 -57 -151 -108 -160 -114 -9 -5 -23 -16 -30 -23 -8 -7
-27 -21 -41 -30 -14 -9 -33 -22 -41 -29 -15 -12 -348 -253 -390 -283 -12 -8
-34 -25 -48 -37 -15 -13 -30 -23 -33 -23 -5 0 -22 -13 -66 -50 -7 -5 -16 -10
-22 -10 -5 0 -11 -4 -13 -8 -1 -4 -50 -41 -108 -82 -58 -41 -107 -77 -110 -80
-3 -4 -61 -46 -129 -94 -68 -49 -129 -92 -135 -97 -6 -5 -36 -27 -66 -49 -30
-22 -64 -47 -75 -56 -11 -8 -32 -23 -47 -32 -16 -9 -28 -20 -28 -24 0 -4 -5
-8 -10 -8 -6 0 -16 -5 -23 -10 -40 -34 -158 -120 -165 -120 -5 0 -19 -11 -32
-25 -13 -14 -27 -25 -32 -25 -7 0 -27 -15 -62 -45 -6 -5 -40 -30 -76 -55 -36
-24 -69 -48 -75 -52 -44 -36 -188 -138 -193 -138 -4 0 -14 -9 -22 -20 -8 -11
-19 -20 -25 -20 -8 0 -49 -29 -110 -78 -5 -4 -41 -30 -80 -57 -38 -26 -74 -53
-80 -59 -5 -6 -35 -28 -65 -48 -76 -51 -271 -192 -292 -211 -9 -9 -27 -21 -40
-28 -12 -7 -29 -19 -37 -26 -7 -8 -26 -22 -40 -31 -14 -9 -44 -30 -67 -47 -22
-16 -51 -38 -65 -48 -162 -117 -207 -150 -222 -162 -9 -8 -20 -15 -23 -15 -2
0 -10 -5 -17 -10 -7 -6 -37 -29 -67 -51 -30 -21 -59 -43 -65 -47 -5 -4 -26
-19 -45 -32 -19 -13 -40 -29 -46 -35 -6 -5 -22 -17 -34 -25 -12 -8 -54 -38
-94 -67 -39 -28 -86 -62 -104 -75 -18 -13 -43 -31 -55 -40 -12 -10 -26 -21
-32 -25 -5 -5 -30 -21 -55 -38 -25 -16 -56 -40 -70 -52 -14 -13 -28 -23 -32
-23 -3 0 -13 -6 -20 -13 -7 -7 -44 -35 -83 -62 -38 -27 -74 -53 -80 -57 -5 -5
-41 -31 -80 -58 -38 -27 -74 -53 -80 -58 -24 -19 -269 -198 -284 -207 -18 -11
-257 -184 -306 -222 -16 -13 -34 -27 -40 -31 -5 -4 -26 -17 -45 -29 -19 -12
-48 -34 -64 -48 -16 -14 -32 -25 -36 -25 -3 0 -15 -8 -26 -17 -36 -33 -93 -73
-103 -73 -5 0 -14 -6 -18 -13 -4 -8 -21 -22 -38 -32 -16 -11 -37 -25 -45 -32
-8 -8 -53 -41 -100 -74 -129 -92 -189 -135 -217 -159 -7 -5 -17 -10 -23 -10
-5 0 -10 -4 -10 -8 0 -4 -12 -15 -27 -24 -16 -9 -37 -24 -48 -32 -11 -9 -38
-29 -60 -46 -22 -16 -46 -34 -52 -40 -19 -16 -19 -3324 0 -3317 18 7 711 500
715 509 2 5 8 8 12 8 5 0 53 32 107 71 116 83 114 82 223 159 47 32 94 67 105
76 11 9 30 21 43 27 12 5 22 14 22 19 0 4 4 8 10 8 5 0 18 6 27 14 44 36 114
86 120 86 3 0 13 7 22 15 9 9 93 69 186 135 94 65 175 122 180 127 6 5 48 35
95 68 47 33 90 63 95 68 6 4 55 39 110 78 55 38 107 75 115 82 8 6 42 30 75
52 33 22 62 42 65 45 17 17 80 60 88 60 6 0 12 4 14 8 2 4 98 75 213 156 116
82 220 156 231 165 12 9 30 22 40 29 11 7 62 43 114 80 52 37 124 88 160 113
36 25 101 72 145 103 44 32 89 64 100 71 11 8 48 35 83 60 34 25 66 45 71 45
5 0 11 3 13 8 5 11 116 92 127 92 5 0 11 4 13 8 2 5 91 70 198 146 252 177
240 169 255 184 8 6 16 12 18 12 3 0 118 81 257 180 139 99 254 180 257 180 2
0 10 6 18 13 15 14 24 20 160 116 55 38 105 73 110 78 6 5 48 35 95 67 47 33
87 63 88 67 2 5 10 9 17 9 7 0 15 3 17 8 2 4 42 34 91 67 48 32 87 62 87 67 0
4 5 8 11 8 6 0 38 20 70 45 33 25 63 45 68 45 5 0 11 4 13 8 3 7 45 39 152
112 102 70 192 136 194 142 2 4 8 8 13 8 9 0 21 8 54 38 8 7 15 11 15 8 0 -3
8 1 18 10 14 13 183 135 246 176 10 7 40 29 67 48 26 19 57 42 69 50 12 8 60
42 106 75 46 33 106 76 134 95 28 19 63 45 78 57 15 13 30 23 34 23 15 0 58
44 54 55 -2 7 0 18 4 25 5 8 6 18 3 23 -7 11 -6 374 1 386 4 5 2 12 -2 15 -8
5 -9 29 -2 61 1 6 2 12 1 15 -5 17 -2 1020 3 1029 4 5 2 12 -2 15 -8 5 -9 29
-2 61 1 6 2 15 1 20 -5 28 -2 376 3 384 4 5 2 12 -2 15 -8 5 -9 29 -2 61 1 6
2 15 1 20 -1 6 -2 297 -2 648 0 350 -1 637 -2 637 -1 -1 -60 -44 -132 -96z"/>
<path d="M6820 5793 c-2 -127 -1 -540 0 -548 1 -6 1 -12 0 -15 -6 -17 -5 -52
2 -56 4 -3 5 -10 2 -16 -10 -16 -11 -51 -2 -70 4 -9 4 -19 0 -22 -7 -4 -8 -40
-2 -56 1 -3 1 -9 0 -15 -2 -13 -2 -377 0 -390 1 -5 1 -12 0 -15 -6 -16 -5 -52
2 -56 4 -3 4 -13 0 -22 -8 -15 -8 -41 -2 -67 1 -5 1 -12 0 -15 -6 -17 -5 -52
2 -56 4 -3 6 -10 2 -15 -5 -9 -9 -370 -4 -394 1 -5 1 -12 0 -15 -6 -17 -5 -52
2 -56 4 -3 6 -10 3 -15 -6 -8 -10 -1011 -5 -1034 1 -5 1 -12 0 -15 -6 -17 -5
-52 2 -56 4 -3 6 -10 2 -15 -3 -6 -7 -26 -8 -45 l-1 -35 220 -109 c121 -59
364 -179 540 -266 176 -87 323 -157 327 -156 3 1 12 -5 18 -13 7 -8 17 -15 22
-15 6 0 107 -48 227 -106 596 -294 911 -448 971 -476 36 -17 73 -38 83 -46 9
-8 17 -12 17 -9 0 3 52 -21 115 -53 63 -32 115 -56 115 -53 0 2 13 -5 29 -16
16 -12 31 -21 34 -21 5 0 647 -314 700 -341 16 -9 17 71 15 1642 l-3 1651 -85
39 c-125 56 -164 73 -172 71 -5 -1 -8 2 -8 8 0 5 -9 10 -20 10 -11 0 -20 5
-20 10 0 6 -7 10 -15 10 -9 0 -47 16 -85 35 -39 19 -73 34 -75 35 -3 0 -34 14
-70 30 -36 17 -68 30 -70 30 -2 0 -36 15 -75 34 -38 19 -70 32 -70 29 0 -3 -6
-1 -12 4 -7 6 -56 29 -108 53 -52 23 -113 50 -135 60 -22 10 -125 56 -230 103
-104 47 -219 98 -255 114 -36 17 -103 47 -150 68 -47 21 -119 53 -160 72 -100
47 -124 57 -132 55 -5 -1 -8 3 -8 10 0 6 -3 9 -6 6 -3 -3 -37 9 -75 28 -38 19
-76 34 -83 34 -7 0 -19 6 -25 14 -7 8 -23 17 -38 21 -14 3 -57 21 -94 40 -38
19 -69 32 -69 30 0 -2 -27 9 -60 26 -64 32 -100 46 -114 47 -5 0 -12 4 -15 9
-3 4 -42 24 -86 42 -98 42 -188 83 -281 127 -39 19 -74 34 -77 34 -4 0 -49 20
-101 45 -53 25 -98 45 -100 45 -5 0 -163 71 -238 108 -5 2 -8 -14 -8 -35z"/>
</g>
</svg>
