<svg width="60" height="60" viewBox="0 0 60 60" fill="none" xmlns="http://www.w3.org/2000/svg">
    <rect width="60" height="60" rx="12" fill="#E0E0E0" />
    <rect x="24.2148" y="8.21484" width="11.5714" height="11.5714" stroke="black" />
    <path
        d="M23.7322 26.5379C23.329 26.4751 23.312 26.4677 23.5018 26.4384C23.8654 26.3823 24.7241 26.4588 25.3157 26.6001C26.6969 26.9297 27.9538 27.7741 29.2955 29.2737L29.652 29.6721L30.1619 29.5898C32.31 29.2432 34.4952 29.5187 36.3231 30.3663C36.8259 30.5996 37.6187 31.0638 37.7178 31.183C37.7492 31.2211 37.8073 31.4658 37.8464 31.7269C37.9823 32.6304 37.9143 33.3229 37.6392 33.8401C37.4894 34.1216 37.4809 34.2108 37.5815 34.4516C37.6621 34.6438 37.8861 34.7861 38.108 34.7859C38.5623 34.7853 39.0512 34.0481 39.2777 33.0224L39.3676 32.615L39.5459 32.8177C40.5236 33.9298 41.2917 35.4465 41.4236 36.5259L41.4579 36.8075L41.2936 36.5516C41.0106 36.1113 40.7264 35.8115 40.3626 35.5698C39.7065 35.1341 39.013 34.9856 37.1759 34.8885C35.5168 34.8008 34.5779 34.6585 33.6467 34.3537C32.0627 33.8352 31.2641 33.1446 29.3822 30.6661C28.5465 29.5652 28.0299 28.9562 27.5159 28.4656C26.3484 27.3511 25.201 26.7666 23.7322 26.5379Z"
        fill="black" />
    <path
        d="M38.0888 28.9943C38.1305 28.2566 38.2302 27.7701 38.4305 27.3257C38.5097 27.1498 38.5841 27.0059 38.5955 27.0059C38.6071 27.0059 38.5726 27.1357 38.519 27.2943C38.3732 27.7256 38.3493 28.3154 38.4498 29.0017C38.577 29.8724 38.6495 29.9981 39.5662 30.9387C39.9962 31.3798 40.4963 31.9363 40.6777 32.1752L41.0074 32.6095L40.6777 32.2991C40.2746 31.9195 39.3474 31.1791 39.1425 31.0733C39.0052 31.0023 38.9848 31.0036 38.9001 31.0882C38.822 31.1662 38.8057 31.2834 38.7947 31.8374C38.7779 32.7009 38.6607 33.2551 38.3776 33.8093C38.2248 34.109 38.2005 34.045 38.3391 33.7067C38.4424 33.4541 38.453 33.3431 38.4523 32.5072C38.4505 30.8277 38.2519 30.4239 37.0873 29.7322C36.7921 29.557 36.3058 29.3043 36.0068 29.1706C35.7076 29.0369 35.4701 28.9205 35.4787 28.9118C35.5117 28.8789 36.6477 29.2117 37.1048 29.3883C37.7848 29.6509 37.8972 29.6849 37.9797 29.6532C38.035 29.632 38.0618 29.4701 38.0888 28.9943Z"
        fill="black" />
    <path
        d="M24.5173 31.8685C23.6988 30.7372 23.1923 29.0026 23.302 27.7059L23.3359 27.3047L23.5222 27.3388C23.8721 27.4029 24.4755 27.6283 24.7579 27.8006C25.5332 28.2732 25.8686 28.8955 26.2101 30.4935C26.3101 30.9615 26.4414 31.4912 26.5018 31.6705C26.5989 31.9591 26.9662 32.6333 27.2649 33.0711C27.48 33.3865 27.3372 33.5359 26.8617 33.4928C26.1355 33.427 25.1518 32.7455 24.5173 31.8685Z"
        fill="black" />
    <path
        d="M37.0983 40.288C33.2731 38.7419 31.9258 37.3996 31.9258 35.1351C31.9258 34.802 31.9372 34.5293 31.951 34.5293C31.9649 34.5293 32.113 34.6392 32.28 34.7738C33.0556 35.3983 33.9243 35.6651 36.3291 36.0173C37.744 36.2244 38.5403 36.3918 39.275 36.6365C41.6098 37.4138 43.0542 38.9914 43.3988 41.14C43.4988 41.7644 43.4402 42.9352 43.2779 43.5522C43.1497 44.0396 42.7587 44.9181 42.6551 44.9518C42.6264 44.9613 42.5981 44.8506 42.5908 44.7C42.5514 43.8933 42.1452 43.1076 41.4633 42.5193C40.6877 41.8503 39.6458 41.3177 37.0983 40.288Z"
        fill="black" />
    <path
        d="M34.4125 40.9308C34.3644 40.6445 34.2814 40.2787 34.2278 40.1182L34.13 39.8262L34.3114 40.0306C34.5623 40.3131 34.7605 40.6749 34.9286 41.1568C35.0568 41.5246 35.0712 41.6339 35.0703 42.2314C35.0693 42.8181 35.0533 42.9412 34.9347 43.2721C34.7481 43.7942 34.5164 44.1642 34.1275 44.5614C33.4288 45.2754 32.5304 45.6706 31.234 45.8346C31.0086 45.863 30.3518 45.911 29.7743 45.9412C28.3191 46.0173 27.3613 46.1742 26.5008 46.4775C26.377 46.5211 26.2666 46.5476 26.2554 46.5364C26.2205 46.5017 26.8064 46.151 27.2905 45.917C27.9728 45.587 28.6523 45.4068 30.1742 45.1525C30.9261 45.0267 31.7025 44.8742 31.8997 44.8134C33.7616 44.2403 34.7188 42.7614 34.4125 40.9308Z"
        fill="black" />
    <path
        d="M36.1695 44.0562C35.6613 42.9593 35.5447 41.9004 35.8231 40.9127C35.8528 40.8072 35.9008 40.7207 35.9295 40.7207C35.9584 40.7207 36.0783 40.7859 36.1961 40.8655C36.4302 41.0236 36.9001 41.2903 38.1515 41.9753C39.713 42.83 40.6033 43.4918 41.2089 44.248C41.7391 44.9103 42.0672 45.6644 42.2251 46.5841C42.3146 47.1052 42.2621 48.3586 42.1291 48.8833C41.7092 50.5374 40.7334 51.8365 39.3416 52.5948C39.1377 52.7057 38.9545 52.7969 38.9348 52.7975C38.915 52.7979 38.9892 52.6082 39.0999 52.3759C39.5682 51.3933 39.6214 50.4375 39.2674 49.3738C39.0507 48.7225 38.6088 47.9276 37.7165 46.5843C36.6791 45.0226 36.4248 44.607 36.1695 44.0562Z"
        fill="black" />
    <path
        d="M21.8015 49.9748C23.2211 48.7715 24.9874 47.9168 26.5963 47.6543C27.2896 47.5413 28.4448 47.5862 29.0868 47.7511C30.116 48.0155 31.0366 48.6078 31.5155 49.3134C31.9834 50.0031 32.1841 50.604 32.3931 51.9411C32.4756 52.4685 32.5653 52.9983 32.5925 53.1181C32.7494 53.8112 33.0548 54.3651 33.4334 54.6432C34.0346 55.0849 35.0699 55.1124 36.0883 54.7137C36.261 54.646 36.4112 54.5991 36.4216 54.6098C36.4586 54.6465 35.9458 54.9911 35.5841 55.1726C35.0973 55.4167 34.7101 55.5111 34.1958 55.5111C33.263 55.5111 32.4887 55.0348 31.8425 54.0634C31.7154 53.8723 31.4297 53.2998 31.2074 52.7912C30.5253 51.229 30.1883 50.7533 29.3963 50.2324C28.7068 49.7793 27.8178 49.698 27.149 50.0273C26.2704 50.4596 26.0254 51.5867 26.6547 52.3011C26.9047 52.5848 27.3711 52.8297 27.7525 52.8773C28.4658 52.9665 29.0789 52.4217 29.0789 51.6986C29.0789 51.229 28.8992 50.9611 28.4465 50.756C27.8286 50.4761 27.1643 50.8034 27.1673 51.3862C27.1687 51.6347 27.2767 51.7909 27.5248 51.9035C27.684 51.9759 27.6877 51.9817 27.5578 51.9546C26.9907 51.8366 26.8579 51.1502 27.3139 50.6946C27.8612 50.1476 28.9933 50.389 29.382 51.1355C29.5453 51.4491 29.5642 52.0737 29.4219 52.4509C29.1032 53.295 28.1741 53.739 27.2315 53.4974C26.5899 53.3329 26.3285 53.1548 25.5548 52.3547C24.2104 50.9644 23.6885 50.695 21.7503 50.3913L21.3789 50.3331L21.8015 49.9748Z"
        fill="black" />
    <path fill-rule="evenodd" clip-rule="evenodd"
        d="M11.6612 18.8316C16.1509 24.3021 23.0729 32.8194 23.4165 33.2962C23.7002 33.69 23.5934 34.044 23.1074 34.3213C22.8371 34.4756 22.2813 34.632 22.0031 34.632C21.6884 34.632 21.3338 34.4799 21.0756 34.2339C20.8932 34.0602 20.1567 32.9561 18.4564 30.3076C17.1555 28.2811 16.0668 26.6 16.037 26.5718C15.9684 26.5067 15.9695 26.5089 18.3238 30.7377C19.802 33.3931 20.301 34.3318 20.301 34.4574C20.301 34.7127 20.2316 34.847 19.9178 35.1983C19.3947 35.7842 19.1609 36.4425 18.9921 37.8049C18.8029 39.332 18.2708 40.4106 16.7961 42.2569C15.9329 43.3377 15.7916 43.5359 15.5738 43.9714C15.2995 44.5201 15.224 44.8273 15.1935 45.52C15.1611 46.2524 15.2241 46.7254 15.447 47.4257C15.6421 48.0386 15.8458 48.4436 16.3665 49.2532C16.8158 49.9519 17.0745 50.471 17.0745 50.6742C17.0745 50.8358 17.1053 50.836 17.8016 50.6781C19.4679 50.3005 20.821 49.636 21.582 48.8218C22.053 48.3177 22.1635 48.0396 22.1671 47.3488C22.1695 46.8973 22.1537 46.8026 22.032 46.5427C21.834 46.1198 21.4736 45.7681 20.6792 45.2229C19.6382 44.5085 19.1936 43.9334 19.0708 43.1426C18.9701 42.4936 19.087 42.0357 19.6628 40.8241C20.2588 39.57 20.4065 39.0355 20.5064 37.7714C20.571 36.9548 20.6604 36.6325 20.8941 36.3741C21.1379 36.1045 21.3573 36.0132 21.9606 35.9305C22.9442 35.7956 23.5705 35.5401 24.0853 35.0638C24.532 34.6508 24.7188 34.2526 24.7475 33.6533L24.7693 33.1991L24.5196 32.907C23.6159 31.8491 11.056 18 11.0003 18C10.9885 18 11.2859 18.3742 11.6612 18.8316ZM17.5819 46.3486C17.7862 45.9853 17.6776 45.5182 17.3358 45.2902C17.0129 45.0746 16.5112 45.176 16.5112 45.4571C16.5112 45.5428 16.5584 45.6051 16.6648 45.6601C16.844 45.7526 16.857 45.8568 16.7161 46.0695C16.5733 46.2851 16.5848 46.4744 16.7486 46.6031C17.0125 46.8106 17.3862 46.6966 17.5819 46.3486Z"
        fill="black" />
    <path fill-rule="evenodd" clip-rule="evenodd"
        d="M25.3909 36.1684C24.9291 36.3106 24.4803 36.8019 24.3413 37.3171C24.2566 37.6314 24.3047 38.1826 24.4317 38.3528C24.6368 38.6278 24.835 38.7002 25.3721 38.6965C26.4237 38.6892 27.3379 38.2365 27.4441 37.6703C27.5313 37.2064 27.1297 36.5634 26.5767 36.2812C26.2914 36.1357 25.6845 36.0778 25.3909 36.1684ZM26.6201 37.1332C26.7823 36.9019 26.7113 36.6519 26.4356 36.4829C25.9102 36.1608 25.1161 36.4273 25.1161 36.9253C25.1161 37.1733 25.5302 37.4439 25.9099 37.4439C26.1626 37.4439 26.5085 37.2925 26.6201 37.1332Z"
        fill="black" />
</svg>