<svg width="33" height="38" viewBox="0 0 33 38" fill="none" xmlns="http://www.w3.org/2000/svg">
    <path d="M12.7322 8.53788C12.329 8.47509 12.312 8.46771 12.5018 8.43845C12.8654 8.3823 13.7241 8.45881 14.3157 8.60006C15.6969 8.92968 16.9538 9.77406 18.2955 11.2737L18.652 11.6721L19.1619 11.5898C21.31 11.2432 23.4952 11.5187 25.3231 12.3663C25.8259 12.5996 26.6187 13.0638 26.7178 13.183C26.7492 13.2211 26.8073 13.4658 26.8464 13.7269C26.9823 14.6304 26.9143 15.3229 26.6392 15.8401C26.4894 16.1216 26.4809 16.2108 26.5815 16.4516C26.6621 16.6438 26.8861 16.7861 27.108 16.7859C27.5623 16.7853 28.0512 16.0481 28.2777 15.0224L28.3676 14.615L28.5459 14.8177C29.5236 15.9298 30.2917 17.4465 30.4236 18.5259L30.4579 18.8075L30.2936 18.5516C30.0106 18.1113 29.7264 17.8115 29.3626 17.5698C28.7065 17.1341 28.013 16.9856 26.1759 16.8885C24.5168 16.8008 23.5779 16.6585 22.6467 16.3537C21.0627 15.8352 20.2641 15.1446 18.3822 12.6661C17.5465 11.5652 17.0299 10.9562 16.5159 10.4656C15.3484 9.3511 14.201 8.76657 12.7322 8.53788Z" fill="black"/>
    <path d="M27.0888 10.9943C27.1305 10.2566 27.2302 9.77005 27.4305 9.3257C27.5097 9.14982 27.5841 9.00586 27.5955 9.00586C27.6071 9.00586 27.5726 9.13569 27.519 9.29433C27.3732 9.72558 27.3493 10.3154 27.4498 11.0017C27.577 11.8724 27.6495 11.9981 28.5662 12.9387C28.9962 13.3798 29.4963 13.9363 29.6777 14.1752L30.0074 14.6095L29.6777 14.2991C29.2746 13.9195 28.3474 13.1791 28.1425 13.0733C28.0052 13.0023 27.9848 13.0036 27.9001 13.0882C27.822 13.1662 27.8057 13.2834 27.7947 13.8374C27.7779 14.7009 27.6607 15.2551 27.3776 15.8093C27.2248 16.109 27.2005 16.045 27.3391 15.7067C27.4424 15.4541 27.453 15.3431 27.4523 14.5072C27.4505 12.8277 27.2519 12.4239 26.0873 11.7322C25.7921 11.557 25.3058 11.3043 25.0068 11.1706C24.7076 11.0369 24.4701 10.9205 24.4787 10.9118C24.5117 10.8789 25.6477 11.2117 26.1048 11.3883C26.7848 11.6509 26.8972 11.6849 26.9797 11.6532C27.035 11.632 27.0618 11.4701 27.0888 10.9943Z" fill="black"/>
    <path d="M13.5173 13.8685C12.6988 12.7372 12.1923 11.0026 12.302 9.70594L12.3359 9.30469L12.5222 9.33881C12.8721 9.40288 13.4755 9.6283 13.7579 9.80056C14.5332 10.2732 14.8686 10.8955 15.2101 12.4935C15.3101 12.9615 15.4414 13.4912 15.5018 13.6705C15.5989 13.9591 15.9662 14.6333 16.2649 15.0711C16.48 15.3865 16.3372 15.5359 15.8617 15.4928C15.1355 15.427 14.1518 14.7455 13.5173 13.8685Z" fill="black"/>
    <path d="M26.0983 22.288C22.2731 20.7419 20.9258 19.3996 20.9258 17.1351C20.9258 16.802 20.9372 16.5293 20.951 16.5293C20.9649 16.5293 21.113 16.6392 21.28 16.7738C22.0556 17.3983 22.9243 17.6651 25.3291 18.0173C26.744 18.2244 27.5403 18.3918 28.275 18.6365C30.6098 19.4138 32.0542 20.9914 32.3988 23.14C32.4988 23.7644 32.4402 24.9352 32.2779 25.5522C32.1497 26.0396 31.7587 26.9181 31.6551 26.9518C31.6264 26.9613 31.5981 26.8506 31.5908 26.7C31.5514 25.8933 31.1452 25.1076 30.4633 24.5193C29.6877 23.8503 28.6458 23.3177 26.0983 22.288Z" fill="black"/>
    <path d="M23.4125 22.9308C23.3644 22.6445 23.2814 22.2787 23.2278 22.1182L23.13 21.8262L23.3114 22.0306C23.5623 22.3131 23.7605 22.6749 23.9286 23.1568C24.0568 23.5246 24.0712 23.6339 24.0703 24.2314C24.0693 24.8181 24.0533 24.9412 23.9347 25.2721C23.7481 25.7942 23.5164 26.1642 23.1275 26.5614C22.4288 27.2754 21.5304 27.6706 20.234 27.8346C20.0086 27.863 19.3518 27.911 18.7743 27.9412C17.3191 28.0173 16.3613 28.1742 15.5008 28.4775C15.377 28.5211 15.2666 28.5476 15.2554 28.5364C15.2205 28.5017 15.8064 28.151 16.2905 27.917C16.9728 27.587 17.6523 27.4068 19.1742 27.1525C19.9261 27.0267 20.7025 26.8742 20.8997 26.8134C22.7616 26.2403 23.7188 24.7614 23.4125 22.9308Z" fill="black"/>
    <path d="M25.1695 26.0562C24.6613 24.9593 24.5447 23.9004 24.8231 22.9127C24.8528 22.8072 24.9008 22.7207 24.9295 22.7207C24.9584 22.7207 25.0783 22.7859 25.1961 22.8655C25.4302 23.0236 25.9001 23.2903 27.1515 23.9753C28.713 24.83 29.6033 25.4918 30.2089 26.248C30.7391 26.9103 31.0672 27.6644 31.2251 28.5841C31.3146 29.1052 31.2621 30.3586 31.1291 30.8833C30.7092 32.5374 29.7334 33.8365 28.3416 34.5948C28.1377 34.7057 27.9545 34.7969 27.9348 34.7975C27.915 34.7979 27.9892 34.6082 28.0999 34.3759C28.5682 33.3933 28.6214 32.4375 28.2674 31.3738C28.0507 30.7225 27.6088 29.9276 26.7165 28.5843C25.6791 27.0226 25.4248 26.607 25.1695 26.0562Z" fill="black"/>
    <path d="M10.8015 31.9748C12.2211 30.7715 13.9874 29.9168 15.5963 29.6543C16.2896 29.5413 17.4448 29.5862 18.0868 29.7511C19.116 30.0155 20.0366 30.6078 20.5155 31.3134C20.9834 32.0031 21.1841 32.604 21.3931 33.9411C21.4756 34.4685 21.5653 34.9983 21.5925 35.1181C21.7494 35.8112 22.0548 36.3651 22.4334 36.6432C23.0346 37.0849 24.0699 37.1124 25.0883 36.7137C25.261 36.646 25.4112 36.5991 25.4216 36.6098C25.4586 36.6465 24.9458 36.9911 24.5841 37.1726C24.0973 37.4167 23.7101 37.5111 23.1958 37.5111C22.263 37.5111 21.4887 37.0348 20.8425 36.0634C20.7154 35.8723 20.4297 35.2998 20.2074 34.7912C19.5253 33.229 19.1883 32.7533 18.3963 32.2324C17.7068 31.7793 16.8178 31.698 16.149 32.0273C15.2704 32.4596 15.0254 33.5867 15.6547 34.3011C15.9047 34.5848 16.3711 34.8297 16.7525 34.8773C17.4658 34.9665 18.0789 34.4217 18.0789 33.6986C18.0789 33.229 17.8992 32.9611 17.4465 32.756C16.8286 32.4761 16.1643 32.8034 16.1673 33.3862C16.1687 33.6347 16.2767 33.7909 16.5248 33.9035C16.684 33.9759 16.6877 33.9817 16.5578 33.9546C15.9907 33.8366 15.8579 33.1502 16.3139 32.6946C16.8612 32.1476 17.9933 32.389 18.382 33.1355C18.5453 33.4491 18.5642 34.0737 18.4219 34.4509C18.1032 35.295 17.1741 35.739 16.2315 35.4974C15.5899 35.3329 15.3285 35.1548 14.5548 34.3547C13.2104 32.9644 12.6885 32.695 10.7503 32.3913L10.3789 32.3331L10.8015 31.9748Z" fill="black"/>
    <path fill-rule="evenodd" clip-rule="evenodd" d="M0.661215 0.83159C5.15094 6.3021 12.0729 14.8194 12.4165 15.2962C12.7002 15.69 12.5934 16.044 12.1074 16.3213C11.8371 16.4756 11.2813 16.632 11.0031 16.632C10.6884 16.632 10.3338 16.4799 10.0756 16.2339C9.89318 16.0602 9.15666 14.9561 7.45642 12.3076C6.15546 10.2811 5.06675 8.59997 5.03704 8.57183C4.96837 8.50674 4.96954 8.50892 7.32375 12.7377C8.80201 15.3931 9.30104 16.3318 9.30104 16.4574C9.30104 16.7127 9.23164 16.847 8.91784 17.1983C8.39474 17.7842 8.16092 18.4425 7.9921 19.8049C7.80287 21.332 7.27075 22.4106 5.7961 24.2569C4.93287 25.3377 4.79163 25.5359 4.57383 25.9714C4.29947 26.5201 4.22403 26.8273 4.19346 27.52C4.16114 28.2524 4.22407 28.7254 4.44696 29.4257C4.64209 30.0386 4.84577 30.4436 5.36645 31.2532C5.81581 31.9519 6.07454 32.471 6.07454 32.6742C6.07454 32.8358 6.10527 32.836 6.80158 32.6781C8.46795 32.3005 9.82102 31.636 10.582 30.8218C11.053 30.3177 11.1635 30.0396 11.1671 29.3488C11.1695 28.8973 11.1537 28.8026 11.032 28.5427C10.834 28.1198 10.4736 27.7681 9.67916 27.2229C8.63822 26.5085 8.19363 25.9334 8.07082 25.1426C7.97009 24.4936 8.08696 24.0357 8.66281 22.8241C9.25884 21.57 9.40654 21.0355 9.50645 19.7714C9.57098 18.9548 9.66036 18.6325 9.89409 18.3741C10.1379 18.1045 10.3573 18.0132 10.9606 17.9305C11.9442 17.7956 12.5705 17.5401 13.0853 17.0638C13.532 16.6508 13.7188 16.2526 13.7475 15.6533L13.7693 15.1991L13.5196 14.907C12.6159 13.8491 0.0559657 0 0.000343686 0C-0.0115326 0 0.285877 0.37423 0.661215 0.83159ZM6.58187 28.3486C6.78621 27.9853 6.67765 27.5182 6.33584 27.2902C6.01288 27.0746 5.51119 27.176 5.51119 27.4571C5.51119 27.5428 5.5584 27.6051 5.66483 27.6601C5.84403 27.7526 5.85705 27.8568 5.71605 28.0695C5.57327 28.2851 5.58478 28.4744 5.74856 28.6031C6.01252 28.8106 6.38618 28.6966 6.58187 28.3486Z" fill="black"/>
    <path fill-rule="evenodd" clip-rule="evenodd" d="M14.3909 18.1684C13.9291 18.3106 13.4803 18.8019 13.3413 19.3171C13.2566 19.6314 13.3047 20.1826 13.4317 20.3528C13.6368 20.6278 13.835 20.7002 14.3721 20.6965C15.4237 20.6892 16.3379 20.2365 16.4441 19.6703C16.5313 19.2064 16.1297 18.5634 15.5767 18.2812C15.2914 18.1357 14.6845 18.0778 14.3909 18.1684ZM15.6201 19.1332C15.7823 18.9019 15.7113 18.6519 15.4356 18.4829C14.9102 18.1608 14.1161 18.4273 14.1161 18.9253C14.1161 19.1733 14.5302 19.4439 14.9099 19.4439C15.1626 19.4439 15.5085 19.2925 15.6201 19.1332Z" fill="black"/>
</svg>
