<svg width="53" height="50" viewBox="0 0 53 50" fill="none" xmlns="http://www.w3.org/2000/svg">
    <path d="M1 14.5324C1 12.7393 2.19327 11.1653 3.91974 10.681L36.9197 1.42495C39.4708 0.709421 42 2.62685 42 5.27632V34.9676C42 36.7607 40.8067 38.3347 39.0803 38.819L6.08026 48.075C3.52924 48.7906 1 46.8731 1 44.2237V14.5324Z" stroke="#E3E3E3" stroke-miterlimit="10"/>
    <path d="M1 15.5C1 13.2909 2.79086 11.5 5 11.5H45C47.2091 11.5 49 13.2909 49 15.5V45.5C49 47.7091 47.2091 49.5 45 49.5H5C2.79086 49.5 1 47.7091 1 45.5V15.5Z" fill="#131415" stroke="#E3E3E3" stroke-miterlimit="10"/>
    <path d="M30 30.5C30 26.634 33.134 23.5 37 23.5H50C51.1046 23.5 52 24.3954 52 25.5V35.5C52 36.6046 51.1046 37.5 50 37.5H37C33.134 37.5 30 34.366 30 30.5Z" fill="#131415" stroke="#E3E3E3" stroke-miterlimit="10"/>
    <circle cx="44" cy="30.5" r="3" stroke="#E3E3E3" stroke-miterlimit="10"/>
</svg>
